<?xml version="1.0" encoding="UTF-8"?><svg id="Layer_2" xmlns="http://www.w3.org/2000/svg" viewBox="0 0 876.4 152.4"><defs><style>.cls-1{fill:#1a202c;}.cls-2{isolation:isolate;}</style></defs><g id="Layer_1-2"><g id="Kanbon"><g class="cls-2"><path class="cls-1" d="M39.9,87.8v62.9H0V7.1H39.9v61.9L84.5,7.1h46l-52.8,69.7,55.4,73.9h-48.3l-44.9-62.9Z"/><path class="cls-1" d="M190,35.1c16.3,0,27.7,7.1,33.6,17.3v-15.9h40v114.3h-40v-15.9c-5.9,10.2-17.5,17.3-33.6,17.3-27.1,0-48.7-22.2-48.7-58.7s21.6-58.4,48.7-58.4Zm12.9,34.8c-11.4,0-20.8,8.1-20.8,23.6s9.4,23.8,20.8,23.8,20.8-8.4,20.8-23.8c-.1-15.3-9.6-23.6-20.8-23.6Z"/><path class="cls-1" d="M364.2,89.4c0-13.2-7.3-21-18.7-21s-19.1,7.7-19.1,21v61.3h-39.9V36.5h39.9v16.3c6.7-9.8,18.7-17.3,34.8-17.3,26.5,0,43,18.7,43,48.7v66.6h-39.9v-61.4h-.1Z"/><path class="cls-1" d="M499.4,35.1c27.3,0,48.7,22,48.7,58.5s-21.4,58.7-48.7,58.7c-16.1,0-27.3-6.9-33.4-17.3v15.9h-39.9V0h39.9V52.3c6.1-10.3,17.5-17.2,33.4-17.2Zm-12.6,34.8c-11.2,0-20.8,8.4-20.8,23.6s9.6,23.8,20.8,23.8,20.8-8.6,20.8-23.8c-.1-15.5-9.6-23.6-20.8-23.6Z"/><path class="cls-1" d="M617.7,152.2c-34,0-59.7-22.2-59.7-58.7s25.9-58.5,59.9-58.5,59.9,22.2,59.9,58.5-26.1,58.7-60.1,58.7Zm0-34.7c10.2,0,19.6-7.5,19.6-24s-9.2-23.8-19.3-23.8-19.1,7.5-19.1,23.8c-.1,16.5,8.4,24,18.8,24Z"/><path class="cls-1" d="M771.9,89.4c0-13.2-7.3-21-18.7-21s-19.1,7.7-19.1,21v61.3h-39.9V36.5h39.9v16.3c6.7-9.8,18.7-17.3,34.8-17.3,26.5,0,43,18.7,43,48.7v66.6h-39.9v-61.4h-.1Z"/><path class="cls-1" d="M853.2,152.4c-14.3,0-23.4-9-23.4-20.6s9.2-20.8,23.4-20.8,23.2,9.2,23.2,20.8-9.2,20.6-23.2,20.6Z"/></g></g></g></svg>