<?xml version="1.0" encoding="UTF-8"?>
<svg id="Ebene_2"
  xmlns="http://www.w3.org/2000/svg" viewBox="0 0 545.52 111.35">
  <defs>
    <style>.cls-1{fill:#285f61;}.cls-2{fill:#652b19;}.cls-3{fill:#f6ad54;}.cls-4{fill:#286061;}.cls-5{fill:#2d3747;}</style>
  </defs>
  <g id="Ebene_1-2">
    <g>
      <g>
        <path class="cls-1" d="M152.22,46.36c-1.04,1.88-2.64,3.4-4.8,4.55-2.16,1.15-4.84,1.73-8.03,1.73h-5.92v14.06h-9.54V27.53h15.46c3.12,0,5.77,.54,7.92,1.62,2.16,1.08,3.77,2.57,4.85,4.46,1.08,1.9,1.62,4.07,1.62,6.53,0,2.27-.52,4.34-1.56,6.22Zm-9.49-2.59c.89-.85,1.34-2.06,1.34-3.63s-.45-2.77-1.34-3.63c-.89-.86-2.25-1.28-4.07-1.28h-5.19v9.82h5.19c1.82,0,3.18-.43,4.07-1.28Z"/>
        <path class="cls-1" d="M187.93,53.42h-21.59c.15,1.93,.77,3.41,1.87,4.44,1.1,1.02,2.45,1.53,4.05,1.53,2.38,0,4.04-1,4.97-3.01h10.16c-.52,2.05-1.46,3.89-2.82,5.52-1.36,1.64-3.06,2.92-5.11,3.85-2.05,.93-4.33,1.4-6.86,1.4-3.05,0-5.77-.65-8.15-1.95-2.38-1.3-4.24-3.16-5.58-5.58-1.34-2.42-2.01-5.25-2.01-8.48s.66-6.06,1.98-8.48c1.32-2.42,3.17-4.28,5.55-5.58,2.38-1.3,5.11-1.95,8.2-1.95s5.69,.63,8.03,1.9c2.34,1.27,4.18,3.07,5.5,5.41,1.32,2.34,1.98,5.08,1.98,8.2,0,.89-.06,1.82-.17,2.79Zm-9.6-5.3c0-1.64-.56-2.94-1.67-3.91-1.12-.97-2.51-1.45-4.19-1.45s-2.95,.47-4.05,1.39c-1.1,.93-1.78,2.25-2.04,3.96h11.94Z"/>
        <path class="cls-1" d="M206.84,36.71c1.67-.99,3.53-1.48,5.58-1.48v10.1h-2.62c-2.38,0-4.17,.51-5.36,1.53-1.19,1.02-1.79,2.82-1.79,5.38v14.45h-9.54v-31.14h9.54v5.19c1.12-1.71,2.51-3.06,4.19-4.05Z"/>
        <path class="cls-1" d="M222.41,65.75c-2.12-.93-3.79-2.2-5.02-3.82s-1.92-3.43-2.06-5.44h9.43c.11,1.08,.61,1.95,1.51,2.62,.89,.67,1.99,1,3.29,1,1.19,0,2.11-.23,2.76-.7,.65-.46,.98-1.07,.98-1.81,0-.89-.47-1.55-1.4-1.98-.93-.43-2.44-.9-4.52-1.42-2.23-.52-4.09-1.07-5.58-1.65-1.49-.58-2.77-1.49-3.85-2.73-1.08-1.25-1.62-2.93-1.62-5.05,0-1.79,.49-3.41,1.48-4.88,.99-1.47,2.44-2.63,4.35-3.49,1.92-.86,4.19-1.28,6.84-1.28,3.91,0,6.98,.97,9.23,2.9,2.25,1.93,3.54,4.5,3.88,7.7h-8.82c-.15-1.08-.62-1.93-1.42-2.57-.8-.63-1.85-.95-3.15-.95-1.12,0-1.97,.21-2.57,.64-.6,.43-.89,1.01-.89,1.76,0,.89,.47,1.56,1.42,2.01,.95,.45,2.43,.89,4.44,1.34,2.31,.6,4.19,1.18,5.64,1.76,1.45,.58,2.72,1.51,3.82,2.79,1.1,1.28,1.66,3,1.7,5.16,0,1.82-.51,3.45-1.53,4.88-1.02,1.43-2.49,2.56-4.41,3.38-1.92,.82-4.14,1.23-6.67,1.23-2.72,0-5.13-.46-7.25-1.4Z"/>
        <path class="cls-1" d="M254.08,65.2c-2.44-1.3-4.35-3.16-5.75-5.58-1.4-2.42-2.09-5.25-2.09-8.48s.71-6.02,2.12-8.45c1.41-2.44,3.35-4.31,5.8-5.61,2.46-1.3,5.21-1.95,8.26-1.95s5.8,.65,8.26,1.95c2.46,1.3,4.39,3.17,5.8,5.61,1.41,2.44,2.12,5.25,2.12,8.45s-.72,6.02-2.15,8.45c-1.43,2.44-3.39,4.31-5.86,5.61-2.47,1.3-5.24,1.95-8.29,1.95s-5.79-.65-8.23-1.95Zm12.89-8.31c1.28-1.34,1.93-3.25,1.93-5.75s-.62-4.41-1.87-5.75c-1.25-1.34-2.78-2.01-4.6-2.01s-3.4,.66-4.63,1.98c-1.23,1.32-1.84,3.25-1.84,5.78s.6,4.41,1.81,5.75c1.21,1.34,2.72,2.01,4.55,2.01s3.38-.67,4.66-2.01Z"/>
        <path class="cls-1" d="M311.38,38.77c2.18,2.36,3.26,5.61,3.26,9.74v18.19h-9.49v-16.91c0-2.08-.54-3.7-1.62-4.85-1.08-1.15-2.53-1.73-4.35-1.73s-3.27,.58-4.35,1.73c-1.08,1.15-1.62,2.77-1.62,4.85v16.91h-9.54v-31.14h9.54v4.13c.97-1.38,2.27-2.46,3.91-3.26,1.64-.8,3.48-1.2,5.52-1.2,3.65,0,6.56,1.18,8.73,3.54Z"/>
        <path class="cls-1" d="M321.21,42.65c1.21-2.42,2.85-4.28,4.94-5.58,2.08-1.3,4.41-1.95,6.98-1.95,2.19,0,4.12,.45,5.77,1.34,1.66,.89,2.93,2.06,3.82,3.52v-4.41h9.54v31.14h-9.54v-4.41c-.93,1.45-2.22,2.62-3.88,3.52-1.66,.89-3.58,1.34-5.78,1.34-2.53,0-4.84-.66-6.92-1.98-2.08-1.32-3.73-3.2-4.94-5.64-1.21-2.44-1.81-5.25-1.81-8.45s.6-6.01,1.81-8.43Zm19.53,2.85c-1.32-1.38-2.93-2.06-4.83-2.06s-3.51,.68-4.83,2.04c-1.32,1.36-1.98,3.23-1.98,5.61s.66,4.27,1.98,5.66c1.32,1.4,2.93,2.09,4.83,2.09s3.51-.69,4.83-2.06c1.32-1.38,1.98-3.25,1.98-5.64s-.66-4.26-1.98-5.64Z"/>
        <path class="cls-1" d="M384.68,27.53v7.64h-15.96v8.26h11.94v7.42h-11.94v15.85h-9.54V27.53h25.5Z"/>
        <path class="cls-1" d="M395.64,65.2c-2.44-1.3-4.35-3.16-5.75-5.58-1.4-2.42-2.09-5.25-2.09-8.48s.71-6.02,2.12-8.45c1.41-2.44,3.35-4.31,5.8-5.61,2.46-1.3,5.21-1.95,8.26-1.95s5.8,.65,8.26,1.95c2.46,1.3,4.39,3.17,5.8,5.61,1.41,2.44,2.12,5.25,2.12,8.45s-.72,6.02-2.15,8.45c-1.43,2.44-3.38,4.31-5.86,5.61-2.47,1.3-5.24,1.95-8.29,1.95s-5.79-.65-8.23-1.95Zm12.89-8.31c1.28-1.34,1.92-3.25,1.92-5.75s-.62-4.41-1.87-5.75c-1.25-1.34-2.78-2.01-4.6-2.01s-3.4,.66-4.63,1.98c-1.23,1.32-1.84,3.25-1.84,5.78s.6,4.41,1.81,5.75c1.21,1.34,2.72,2.01,4.55,2.01s3.38-.67,4.66-2.01Z"/>
        <path class="cls-1" d="M438.97,36.71c1.67-.99,3.53-1.48,5.58-1.48v10.1h-2.62c-2.38,0-4.17,.51-5.36,1.53-1.19,1.02-1.79,2.82-1.79,5.38v14.45h-9.54v-31.14h9.54v5.19c1.12-1.71,2.51-3.06,4.19-4.05Z"/>
        <path class="cls-1" d="M466.73,36.46c1.65,.89,2.93,2.06,3.82,3.52v-4.41h9.54v31.08c0,2.86-.57,5.46-1.7,7.78-1.13,2.32-2.86,4.18-5.19,5.55-2.33,1.38-5.22,2.06-8.68,2.06-4.61,0-8.35-1.09-11.22-3.26-2.87-2.18-4.5-5.12-4.91-8.84h9.43c.3,1.19,1,2.13,2.12,2.82,1.12,.69,2.49,1.03,4.13,1.03,1.97,0,3.54-.57,4.71-1.7,1.17-1.14,1.76-2.95,1.76-5.44v-4.41c-.93,1.45-2.21,2.63-3.85,3.54-1.64,.91-3.55,1.37-5.75,1.37-2.57,0-4.89-.66-6.97-1.98-2.08-1.32-3.73-3.2-4.94-5.64-1.21-2.44-1.81-5.25-1.81-8.45s.6-6.01,1.81-8.43c1.21-2.42,2.85-4.28,4.94-5.58,2.08-1.3,4.41-1.95,6.97-1.95,2.19,0,4.12,.45,5.78,1.34Zm1.84,9.04c-1.32-1.38-2.93-2.06-4.83-2.06s-3.51,.68-4.83,2.04c-1.32,1.36-1.98,3.23-1.98,5.61s.66,4.27,1.98,5.66,2.93,2.09,4.83,2.09,3.51-.69,4.83-2.06c1.32-1.38,1.98-3.25,1.98-5.64s-.66-4.26-1.98-5.64Z"/>
        <path class="cls-1" d="M516.19,53.42h-21.59c.15,1.93,.77,3.41,1.87,4.44,1.1,1.02,2.45,1.53,4.05,1.53,2.38,0,4.04-1,4.97-3.01h10.16c-.52,2.05-1.46,3.89-2.82,5.52-1.36,1.64-3.06,2.92-5.11,3.85-2.05,.93-4.33,1.4-6.86,1.4-3.05,0-5.77-.65-8.15-1.95-2.38-1.3-4.24-3.16-5.58-5.58-1.34-2.42-2.01-5.25-2.01-8.48s.66-6.06,1.98-8.48c1.32-2.42,3.17-4.28,5.55-5.58,2.38-1.3,5.11-1.95,8.2-1.95s5.69,.63,8.04,1.9c2.34,1.27,4.17,3.07,5.5,5.41,1.32,2.34,1.98,5.08,1.98,8.2,0,.89-.06,1.82-.17,2.79Zm-9.6-5.3c0-1.64-.56-2.94-1.67-3.91-1.12-.97-2.51-1.45-4.18-1.45s-2.95,.47-4.05,1.39c-1.1,.93-1.78,2.25-2.04,3.96h11.94Z"/>
      </g>
      <g>
        <path class="cls-5" d="M137.3,82.12c-.42-.96-1.05-1.71-1.9-2.26-.85-.55-1.85-.82-3.01-.82-1.08,0-2.05,.25-2.91,.75-.86,.5-1.54,1.21-2.04,2.13s-.75,1.99-.75,3.21,.25,2.29,.75,3.22c.5,.93,1.18,1.64,2.04,2.14,.86,.5,1.83,.75,2.91,.75,1.01,0,1.92-.22,2.74-.66,.81-.44,1.46-1.06,1.96-1.87s.77-1.76,.84-2.84h-6.11v-1.19h7.65v1.06c-.07,1.28-.42,2.43-1.04,3.46-.62,1.03-1.46,1.85-2.51,2.44-1.05,.6-2.22,.89-3.53,.89s-2.57-.31-3.66-.95c-1.1-.63-1.96-1.51-2.59-2.64-.63-1.13-.95-2.41-.95-3.84s.31-2.71,.95-3.84c.63-1.13,1.49-2.01,2.59-2.64,1.1-.63,2.32-.95,3.66-.95,1.55,0,2.91,.39,4.08,1.16,1.17,.78,2.01,1.86,2.54,3.24h-1.71Z"/>
        <path class="cls-5" d="M152.36,87.3h-9.42c.04,.86,.25,1.59,.62,2.2,.37,.61,.87,1.07,1.48,1.38s1.28,.47,2,.47c.94,0,1.74-.23,2.38-.69,.65-.46,1.07-1.07,1.28-1.85h1.54c-.28,1.11-.87,2.01-1.78,2.71s-2.05,1.05-3.42,1.05c-1.07,0-2.02-.24-2.87-.72s-1.51-1.16-1.99-2.04c-.48-.88-.72-1.91-.72-3.09s.24-2.21,.71-3.1c.47-.89,1.13-1.57,1.98-2.04,.85-.47,1.81-.71,2.89-.71s2.03,.24,2.84,.71c.81,.47,1.44,1.11,1.87,1.9s.66,1.68,.66,2.65c0,.5-.01,.88-.04,1.14Zm-1.94-3.35c-.35-.6-.84-1.05-1.45-1.35-.61-.3-1.28-.46-2-.46-1.08,0-2,.35-2.77,1.04s-1.19,1.67-1.27,2.93h7.99c.01-.85-.16-1.57-.51-2.16Z"/>
        <path class="cls-5" d="M163.72,82.11c.86,.84,1.29,2.06,1.29,3.65v6.66h-1.44v-6.49c0-1.23-.31-2.18-.93-2.83-.62-.65-1.46-.98-2.53-.98s-1.97,.35-2.62,1.04c-.65,.69-.98,1.71-.98,3.06v6.2h-1.46v-11.36h1.46v1.93c.36-.69,.88-1.22,1.56-1.59,.68-.37,1.45-.55,2.31-.55,1.36,0,2.47,.42,3.33,1.26Z"/>
        <path class="cls-5" d="M178.47,87.3h-9.42c.04,.86,.25,1.59,.62,2.2,.37,.61,.87,1.07,1.48,1.38s1.28,.47,2,.47c.94,0,1.74-.23,2.38-.69,.65-.46,1.07-1.07,1.28-1.85h1.54c-.28,1.11-.87,2.01-1.78,2.71s-2.05,1.05-3.42,1.05c-1.07,0-2.02-.24-2.87-.72s-1.51-1.16-1.99-2.04c-.48-.88-.72-1.91-.72-3.09s.24-2.21,.71-3.1c.47-.89,1.13-1.57,1.98-2.04,.85-.47,1.81-.71,2.89-.71s2.03,.24,2.84,.71c.81,.47,1.44,1.11,1.87,1.9s.66,1.68,.66,2.65c0,.5-.01,.88-.04,1.14Zm-1.94-3.35c-.35-.6-.84-1.05-1.45-1.35-.61-.3-1.28-.46-2-.46-1.08,0-2,.35-2.77,1.04s-1.19,1.67-1.27,2.93h7.99c.01-.85-.16-1.57-.51-2.16Z"/>
        <path class="cls-5" d="M184.09,81.44c.66-.39,1.47-.58,2.42-.58v1.52h-.4c-1.05,0-1.9,.28-2.54,.85-.64,.57-.96,1.52-.96,2.85v6.34h-1.46v-11.36h1.46v2.02c.32-.71,.81-1.25,1.47-1.64Z"/>
        <path class="cls-5" d="M188.73,83.65c.46-.88,1.11-1.56,1.93-2.04,.82-.48,1.76-.72,2.8-.72s2.01,.25,2.8,.75c.78,.5,1.35,1.14,1.7,1.91v-2.5h1.46v11.36h-1.46v-2.52c-.36,.78-.93,1.42-1.72,1.92-.78,.51-1.72,.76-2.8,.76s-1.95-.24-2.78-.73c-.83-.49-1.47-1.17-1.93-2.06-.46-.89-.7-1.91-.7-3.08s.23-2.19,.7-3.07Zm8.66,.68c-.37-.69-.88-1.23-1.53-1.6-.65-.37-1.36-.56-2.13-.56s-1.53,.18-2.16,.54c-.64,.36-1.14,.88-1.51,1.57-.37,.69-.55,1.5-.55,2.44s.18,1.74,.55,2.44c.37,.7,.87,1.23,1.51,1.6,.64,.37,1.36,.55,2.16,.55s1.49-.19,2.13-.56c.64-.37,1.15-.91,1.53-1.6,.37-.69,.56-1.5,.56-2.41s-.19-1.72-.56-2.41Z"/>
        <path class="cls-5" d="M204.63,82.29v7.05c0,.69,.13,1.17,.4,1.44s.73,.4,1.39,.4h1.33v1.25h-1.56c-1.03,0-1.79-.24-2.29-.72-.5-.48-.75-1.27-.75-2.36v-7.05h-1.58v-1.23h1.58v-2.85h1.48v2.85h3.12v1.23h-3.12Z"/>
        <path class="cls-5" d="M220.38,87.3h-9.42c.04,.86,.25,1.59,.62,2.2,.37,.61,.87,1.07,1.48,1.38s1.28,.47,2,.47c.94,0,1.74-.23,2.38-.69,.65-.46,1.07-1.07,1.28-1.85h1.54c-.28,1.11-.87,2.01-1.78,2.71s-2.05,1.05-3.42,1.05c-1.07,0-2.02-.24-2.87-.72s-1.51-1.16-1.99-2.04c-.48-.88-.72-1.91-.72-3.09s.24-2.21,.71-3.1c.47-.89,1.13-1.57,1.98-2.04,.85-.47,1.81-.71,2.89-.71s2.03,.24,2.84,.71c.81,.47,1.44,1.11,1.87,1.9s.66,1.68,.66,2.65c0,.5-.01,.88-.04,1.14Zm-1.94-3.35c-.35-.6-.84-1.05-1.45-1.35-.61-.3-1.28-.46-2-.46-1.08,0-2,.35-2.77,1.04s-1.19,1.67-1.27,2.93h7.99c.01-.85-.16-1.57-.51-2.16Z"/>
        <path class="cls-5" d="M231.93,81.65c.78-.51,1.72-.76,2.8-.76,1.03,0,1.95,.24,2.78,.72,.83,.48,1.47,1.16,1.93,2.04,.46,.88,.7,1.9,.7,3.07s-.23,2.19-.7,3.08c-.46,.89-1.11,1.57-1.93,2.06s-1.75,.73-2.78,.73-2-.25-2.79-.76c-.79-.51-1.37-1.14-1.73-1.9v7.86h-1.44v-16.72h1.44v2.5c.36-.76,.93-1.4,1.72-1.9Zm6.18,2.62c-.37-.69-.87-1.21-1.51-1.57-.64-.36-1.36-.54-2.16-.54s-1.49,.19-2.13,.56c-.65,.37-1.15,.91-1.53,1.6s-.56,1.5-.56,2.41,.19,1.72,.56,2.41c.37,.69,.88,1.23,1.53,1.6s1.35,.56,2.13,.56,1.53-.18,2.16-.55c.64-.37,1.14-.9,1.51-1.6,.37-.7,.55-1.52,.55-2.44s-.18-1.76-.55-2.44Z"/>
        <path class="cls-5" d="M253.05,87.3h-9.42c.04,.86,.25,1.59,.62,2.2,.37,.61,.87,1.07,1.48,1.38s1.28,.47,2,.47c.94,0,1.74-.23,2.38-.69,.65-.46,1.07-1.07,1.28-1.85h1.54c-.28,1.11-.87,2.01-1.78,2.71s-2.05,1.05-3.42,1.05c-1.07,0-2.02-.24-2.87-.72s-1.51-1.16-1.99-2.04c-.48-.88-.72-1.91-.72-3.09s.24-2.21,.71-3.1c.47-.89,1.13-1.57,1.98-2.04,.85-.47,1.81-.71,2.89-.71s2.03,.24,2.84,.71c.81,.47,1.44,1.11,1.87,1.9s.66,1.68,.66,2.65c0,.5-.01,.88-.04,1.14Zm-1.94-3.35c-.35-.6-.84-1.05-1.45-1.35-.61-.3-1.28-.46-2-.46-1.08,0-2,.35-2.77,1.04s-1.19,1.67-1.27,2.93h7.99c.01-.85-.16-1.57-.51-2.16Z"/>
        <path class="cls-5" d="M258.68,81.44c.66-.39,1.47-.58,2.42-.58v1.52h-.4c-1.05,0-1.9,.28-2.54,.85-.64,.57-.96,1.52-.96,2.85v6.34h-1.46v-11.36h1.46v2.02c.32-.71,.81-1.25,1.47-1.64Z"/>
        <path class="cls-5" d="M264,91.68c-.83-.6-1.29-1.42-1.38-2.46h1.5c.07,.64,.37,1.15,.9,1.55,.53,.4,1.25,.59,2.15,.59,.79,0,1.41-.19,1.86-.56,.45-.37,.68-.84,.68-1.39,0-.39-.12-.71-.37-.96-.25-.25-.57-.45-.95-.59-.38-.15-.9-.3-1.55-.47-.85-.22-1.53-.44-2.06-.67-.53-.22-.97-.55-1.34-.99-.37-.44-.55-1.02-.55-1.76,0-.55,.17-1.07,.5-1.54,.33-.47,.8-.85,1.42-1.12,.61-.28,1.3-.42,2.08-.42,1.22,0,2.2,.31,2.95,.93s1.15,1.47,1.21,2.55h-1.46c-.04-.67-.3-1.2-.78-1.61s-1.13-.61-1.97-.61c-.74,0-1.33,.17-1.79,.52-.46,.35-.69,.78-.69,1.29,0,.44,.14,.81,.41,1.09,.27,.28,.61,.51,1.01,.67,.4,.16,.94,.34,1.62,.53,.82,.22,1.47,.44,1.96,.64s.9,.51,1.25,.92c.35,.4,.53,.94,.54,1.6,0,.61-.17,1.15-.5,1.63-.33,.48-.8,.86-1.39,1.13-.6,.28-1.28,.42-2.06,.42-1.3,0-2.37-.3-3.19-.9Z"/>
        <path class="cls-5" d="M275.98,91.87c-.85-.48-1.53-1.16-2.02-2.04s-.74-1.91-.74-3.09,.25-2.21,.75-3.09c.5-.88,1.18-1.56,2.04-2.04,.86-.48,1.82-.72,2.89-.72s2.03,.24,2.9,.72c.87,.48,1.55,1.16,2.04,2.04,.49,.88,.74,1.91,.74,3.09s-.25,2.19-.75,3.08c-.5,.89-1.19,1.57-2.06,2.05-.87,.48-1.84,.72-2.91,.72s-2.03-.24-2.88-.72Zm4.96-1.06c.64-.34,1.15-.85,1.55-1.54,.4-.69,.59-1.53,.59-2.53s-.19-1.84-.58-2.53c-.39-.69-.9-1.2-1.54-1.54-.64-.34-1.33-.51-2.08-.51s-1.44,.17-2.08,.51c-.64,.34-1.15,.85-1.53,1.54-.38,.69-.57,1.53-.57,2.53s.19,1.84,.57,2.53c.38,.69,.89,1.2,1.52,1.54s1.32,.51,2.07,.51,1.44-.17,2.08-.51Z"/>
        <path class="cls-5" d="M295.9,82.11c.86,.84,1.29,2.06,1.29,3.65v6.66h-1.44v-6.49c0-1.23-.31-2.18-.93-2.83-.62-.65-1.46-.98-2.53-.98s-1.97,.35-2.62,1.04c-.65,.69-.98,1.71-.98,3.06v6.2h-1.46v-11.36h1.46v1.93c.36-.69,.88-1.22,1.56-1.59,.68-.37,1.45-.55,2.31-.55,1.36,0,2.47,.42,3.33,1.26Z"/>
        <path class="cls-5" d="M300.44,83.65c.46-.88,1.11-1.56,1.93-2.04,.82-.48,1.76-.72,2.8-.72s2.01,.25,2.8,.75c.78,.5,1.35,1.14,1.7,1.91v-2.5h1.46v11.36h-1.46v-2.52c-.36,.78-.93,1.42-1.72,1.92-.78,.51-1.72,.76-2.8,.76s-1.95-.24-2.78-.73c-.83-.49-1.47-1.17-1.93-2.06-.46-.89-.7-1.91-.7-3.08s.23-2.19,.7-3.07Zm8.66,.68c-.38-.69-.88-1.23-1.53-1.6-.64-.37-1.36-.56-2.13-.56s-1.53,.18-2.16,.54c-.64,.36-1.14,.88-1.51,1.57s-.55,1.5-.55,2.44,.18,1.74,.55,2.44,.87,1.23,1.51,1.6c.64,.37,1.36,.55,2.16,.55s1.49-.19,2.13-.56c.65-.37,1.15-.91,1.53-1.6,.37-.69,.56-1.5,.56-2.41s-.19-1.72-.56-2.41Z"/>
        <path class="cls-5" d="M315.17,91.68c-.83-.6-1.29-1.42-1.38-2.46h1.5c.07,.64,.37,1.15,.9,1.55,.53,.4,1.25,.59,2.15,.59,.79,0,1.41-.19,1.86-.56,.45-.37,.68-.84,.68-1.39,0-.39-.12-.71-.37-.96-.25-.25-.57-.45-.95-.59-.38-.15-.9-.3-1.55-.47-.85-.22-1.53-.44-2.06-.67-.53-.22-.97-.55-1.34-.99-.37-.44-.55-1.02-.55-1.76,0-.55,.17-1.07,.5-1.54,.33-.47,.8-.85,1.42-1.12,.61-.28,1.3-.42,2.08-.42,1.22,0,2.2,.31,2.95,.93s1.15,1.47,1.21,2.55h-1.46c-.04-.67-.3-1.2-.78-1.61s-1.13-.61-1.97-.61c-.74,0-1.33,.17-1.79,.52-.46,.35-.69,.78-.69,1.29,0,.44,.14,.81,.41,1.09,.27,.28,.61,.51,1.01,.67,.4,.16,.94,.34,1.62,.53,.82,.22,1.47,.44,1.96,.64s.9,.51,1.25,.92c.35,.4,.53,.94,.54,1.6,0,.61-.17,1.15-.5,1.63-.33,.48-.8,.86-1.39,1.13-.6,.28-1.28,.42-2.06,.42-1.3,0-2.37-.3-3.19-.9Z"/>
        <path class="cls-5" d="M330.74,78.61c-.21-.21-.31-.46-.31-.77s.1-.56,.31-.76,.46-.3,.75-.3,.54,.1,.75,.3,.31,.45,.31,.76-.1,.56-.31,.77c-.21,.21-.46,.31-.75,.31s-.54-.1-.75-.31Zm1.48,2.45v11.36h-1.46v-11.36h1.46Z"/>
        <path class="cls-5" d="M344.17,82.11c.86,.84,1.29,2.06,1.29,3.65v6.66h-1.44v-6.49c0-1.23-.31-2.18-.93-2.83-.62-.65-1.46-.98-2.53-.98s-1.97,.35-2.62,1.04c-.65,.69-.98,1.71-.98,3.06v6.2h-1.46v-11.36h1.46v1.93c.36-.69,.88-1.22,1.56-1.59,.68-.37,1.45-.55,2.31-.55,1.36,0,2.47,.42,3.33,1.26Z"/>
        <path class="cls-5" d="M355.1,91.68c-.83-.6-1.29-1.42-1.38-2.46h1.5c.07,.64,.37,1.15,.9,1.55,.53,.4,1.25,.59,2.15,.59,.79,0,1.41-.19,1.86-.56,.45-.37,.68-.84,.68-1.39,0-.39-.12-.71-.37-.96-.25-.25-.57-.45-.95-.59-.38-.15-.9-.3-1.55-.47-.85-.22-1.53-.44-2.06-.67-.53-.22-.97-.55-1.34-.99-.37-.44-.55-1.02-.55-1.76,0-.55,.17-1.07,.5-1.54,.33-.47,.8-.85,1.42-1.12,.61-.28,1.3-.42,2.08-.42,1.22,0,2.2,.31,2.95,.93s1.15,1.47,1.21,2.55h-1.46c-.04-.67-.3-1.2-.78-1.61s-1.13-.61-1.97-.61c-.74,0-1.33,.17-1.79,.52-.46,.35-.69,.78-.69,1.29,0,.44,.14,.81,.41,1.09,.27,.28,.61,.51,1.01,.67,.4,.16,.94,.34,1.62,.53,.82,.22,1.47,.44,1.96,.64s.9,.51,1.25,.92c.35,.4,.53,.94,.54,1.6,0,.61-.17,1.15-.5,1.63-.33,.48-.8,.86-1.39,1.13-.6,.28-1.28,.42-2.06,.42-1.3,0-2.37-.3-3.19-.9Z"/>
        <path class="cls-5" d="M375.23,87.3h-9.42c.04,.86,.25,1.59,.62,2.2,.38,.61,.87,1.07,1.48,1.38,.61,.31,1.28,.47,2,.47,.94,0,1.74-.23,2.38-.69s1.07-1.07,1.28-1.85h1.54c-.28,1.11-.87,2.01-1.78,2.71s-2.05,1.05-3.42,1.05c-1.07,0-2.02-.24-2.87-.72s-1.51-1.16-1.99-2.04-.72-1.91-.72-3.09,.24-2.21,.71-3.1c.47-.89,1.13-1.57,1.98-2.04,.85-.47,1.81-.71,2.89-.71s2.03,.24,2.84,.71c.81,.47,1.43,1.11,1.87,1.9,.44,.8,.66,1.68,.66,2.65,0,.5-.01,.88-.04,1.14Zm-1.95-3.35c-.35-.6-.83-1.05-1.45-1.35-.61-.3-1.28-.46-2-.46-1.08,0-2,.35-2.77,1.04-.76,.69-1.19,1.67-1.27,2.93h7.99c.01-.85-.16-1.57-.51-2.16Z"/>
        <path class="cls-5" d="M377.97,83.65c.47-.88,1.12-1.56,1.96-2.04,.83-.48,1.78-.72,2.85-.72,1.4,0,2.56,.35,3.46,1.04,.91,.69,1.49,1.64,1.76,2.83h-1.56c-.19-.82-.61-1.46-1.26-1.92-.64-.46-1.45-.7-2.4-.7-.76,0-1.45,.17-2.06,.52s-1.09,.86-1.45,1.55c-.35,.69-.53,1.53-.53,2.53s.18,1.84,.53,2.54,.83,1.21,1.45,1.56,1.3,.52,2.06,.52c.96,0,1.76-.23,2.4-.7,.65-.46,1.06-1.11,1.26-1.94h1.56c-.26,1.16-.85,2.1-1.77,2.81-.92,.71-2.07,1.06-3.45,1.06-1.07,0-2.02-.24-2.85-.72-.83-.48-1.48-1.16-1.96-2.04-.47-.88-.71-1.91-.71-3.09s.24-2.21,.71-3.09Z"/>
        <path class="cls-5" d="M392.77,91.87c-.85-.48-1.53-1.16-2.02-2.04s-.74-1.91-.74-3.09,.25-2.21,.75-3.09c.5-.88,1.18-1.56,2.04-2.04,.86-.48,1.82-.72,2.89-.72s2.03,.24,2.9,.72c.87,.48,1.55,1.16,2.04,2.04,.49,.88,.74,1.91,.74,3.09s-.25,2.19-.75,3.08c-.5,.89-1.19,1.57-2.06,2.05-.87,.48-1.84,.72-2.91,.72s-2.03-.24-2.88-.72Zm4.96-1.06c.64-.34,1.15-.85,1.55-1.54,.4-.69,.59-1.53,.59-2.53s-.19-1.84-.58-2.53c-.39-.69-.9-1.2-1.54-1.54-.64-.34-1.33-.51-2.08-.51s-1.44,.17-2.08,.51c-.64,.34-1.15,.85-1.53,1.54-.38,.69-.57,1.53-.57,2.53s.19,1.84,.57,2.53c.38,.69,.89,1.2,1.52,1.54s1.32,.51,2.07,.51,1.44-.17,2.08-.51Z"/>
        <path class="cls-5" d="M412.69,82.11c.86,.84,1.29,2.06,1.29,3.65v6.66h-1.44v-6.49c0-1.23-.31-2.18-.93-2.83-.62-.65-1.46-.98-2.53-.98s-1.97,.35-2.62,1.04c-.65,.69-.98,1.71-.98,3.06v6.2h-1.46v-11.36h1.46v1.93c.36-.69,.88-1.22,1.56-1.59,.68-.37,1.45-.55,2.31-.55,1.36,0,2.47,.42,3.33,1.26Z"/>
        <path class="cls-5" d="M417.24,83.65c.47-.88,1.12-1.56,1.95-2.04,.83-.48,1.76-.72,2.8-.72s1.9,.24,2.7,.73c.8,.49,1.39,1.12,1.77,1.89v-6.49h1.46v15.39h-1.46v-2.54c-.35,.79-.92,1.44-1.71,1.94-.79,.51-1.72,.76-2.79,.76s-1.97-.24-2.8-.73c-.83-.49-1.47-1.17-1.93-2.06-.46-.89-.7-1.91-.7-3.08s.24-2.19,.71-3.07Zm8.65,.68c-.38-.69-.88-1.23-1.53-1.6-.64-.37-1.36-.56-2.13-.56s-1.53,.18-2.16,.54c-.64,.36-1.14,.88-1.51,1.57s-.55,1.5-.55,2.44,.18,1.74,.55,2.44,.87,1.23,1.51,1.6c.64,.37,1.36,.55,2.16,.55s1.49-.19,2.13-.56c.65-.37,1.15-.91,1.53-1.6,.37-.69,.56-1.5,.56-2.41s-.19-1.72-.56-2.41Z"/>
        <path class="cls-5" d="M431.96,91.68c-.83-.6-1.29-1.42-1.38-2.46h1.5c.07,.64,.37,1.15,.9,1.55,.53,.4,1.25,.59,2.15,.59,.79,0,1.41-.19,1.86-.56,.45-.37,.68-.84,.68-1.39,0-.39-.12-.71-.37-.96-.25-.25-.57-.45-.95-.59-.38-.15-.9-.3-1.55-.47-.85-.22-1.53-.44-2.06-.67-.53-.22-.97-.55-1.34-.99-.37-.44-.55-1.02-.55-1.76,0-.55,.17-1.07,.5-1.54,.33-.47,.8-.85,1.42-1.12,.61-.28,1.3-.42,2.08-.42,1.22,0,2.2,.31,2.95,.93s1.15,1.47,1.21,2.55h-1.46c-.04-.67-.3-1.2-.78-1.61s-1.13-.61-1.97-.61c-.74,0-1.33,.17-1.79,.52-.46,.35-.69,.78-.69,1.29,0,.44,.14,.81,.41,1.09,.27,.28,.61,.51,1.01,.67,.4,.16,.94,.34,1.62,.53,.82,.22,1.47,.44,1.96,.64s.9,.51,1.25,.92c.35,.4,.53,.94,.54,1.6,0,.61-.17,1.15-.5,1.63-.33,.48-.8,.86-1.39,1.13-.6,.28-1.28,.42-2.06,.42-1.3,0-2.37-.3-3.19-.9Z"/>
      </g>
      <g>
        <rect class="cls-3" x="471.67" width="73.85" height="28.31" rx="12" ry="12"/>
        <g>
          <path class="cls-2" d="M489.75,15.55l-1.04,3.15h-1.34l3.4-10.02h1.56l3.42,10.02h-1.38l-1.07-3.15h-3.55Zm3.28-1.01l-.98-2.88c-.22-.65-.37-1.25-.52-1.83h-.03c-.15,.59-.31,1.2-.51,1.81l-.98,2.9h3.02Z"/>
          <path class="cls-2" d="M497.23,8.68h1.29v8.93h4.28v1.08h-5.57V8.68Z"/>
          <path class="cls-2" d="M504.24,8.8c.62-.1,1.44-.19,2.48-.19,1.28,0,2.21,.3,2.81,.83,.55,.48,.88,1.2,.88,2.1s-.27,1.62-.77,2.14c-.68,.73-1.8,1.1-3.06,1.1-.39,0-.74-.01-1.04-.09v4.01h-1.29V8.8Zm1.29,4.83c.28,.07,.64,.1,1.07,.1,1.56,0,2.51-.76,2.51-2.14s-.94-1.96-2.36-1.96c-.56,0-1,.04-1.22,.1v3.89Z"/>
          <path class="cls-2" d="M513.44,8.68v4.19h4.85v-4.19h1.31v10.02h-1.31v-4.7h-4.85v4.7h-1.29V8.68h1.29Z"/>
          <path class="cls-2" d="M523.46,15.55l-1.04,3.15h-1.34l3.4-10.02h1.56l3.42,10.02h-1.38l-1.07-3.15h-3.55Zm3.28-1.01l-.98-2.88c-.22-.65-.37-1.25-.52-1.83h-.03c-.15,.59-.31,1.2-.51,1.81l-.98,2.9h3.02Z"/>
        </g>
      </g>
    </g>
    <g>
      <circle class="cls-4" cx="52.21" cy="45.18" r="8.38"/>
      <path class="cls-4" d="M52.21,6.94C23.37,6.94,0,30.32,0,59.15s23.37,52.21,52.21,52.21,52.21-23.37,52.21-52.21S81.04,6.94,52.21,6.94Zm0,24.27c7.7,0,13.97,6.27,13.97,13.97s-6.27,13.97-13.97,13.97-13.97-6.27-13.97-13.97,6.27-13.97,13.97-13.97Zm25.14,53.08c0,1.54-1.25,2.79-2.79,2.79s-2.79-1.25-2.79-2.79v-5.59c0-4.62-3.76-8.38-8.38-8.38h-22.35c-4.62,0-8.38,3.76-8.38,8.38v5.59c0,1.54-1.25,2.79-2.79,2.79s-2.79-1.25-2.79-2.79v-5.59c0-7.7,6.27-13.97,13.97-13.97h22.35c7.7,0,13.97,6.27,13.97,13.97v5.59Z"/>
    </g>
  </g>
</svg>