<svg xmlns="http://www.w3.org/2000/svg" viewBox="0 0 330.83 330.83"><defs><style>.cls-1{fill:#d4d7d9;}.cls-2{fill:#fff;}</style></defs><g id="Ebene_2" data-name="Ebene 2"><g id="Livello_1" data-name="Livello 1"><rect class="cls-1" width="330.83" height="330.83"/><path class="cls-2" d="M308.71,330.83c-1.09-5.21-8.84-21.78-8.84-21.78-11-22.66-28.83-25.91-31.16-26.74s-12.42-4.58-35.34-12.66-25.91-20.16-29-29.74-3.58-21.23-3.83-25.57c11.58,2.67,23.92.59,23.92.59a15.4,15.4,0,0,1-5.37-5.86A104.87,104.87,0,0,0,247.53,200c-16.49-17.52-5.45-34-2.73-57.37s-.13-40.23-10.91-65.8S202.21,30.6,179.61,29s-28,5.45-29.34,10.26C124.69,27.49,105.73,59.67,104.43,62A228.39,228.39,0,0,0,88.85,98.35C82.22,118.21,85,145.12,85,145.12c1.58,17.13,3.56,19.33,6.66,31.24s-4.5,19-9.17,23.55c10.38,4.9,25.22,8.54,29.63,8.85-1.26,2.39-3.69,4.59-5.94,6.43,14.75,1.89,21.45-.18,23.84-.63-.36,7.91-3.17,24-3.17,24-3.75,23.24-25.75,29.74-25.75,29.74s-13.5,5.24-39.25,14-31.5,28.74-33.5,32.48-6.25,16-6.25,16Z"/></g></g></svg>