<svg xmlns="http://www.w3.org/2000/svg" viewBox="0 0 330.83 330.83"><defs><style>.cls-1{fill:#d4d7d9;}.cls-2{fill:#fff;}</style></defs><g id="Ebene_2" data-name="Ebene 2"><g id="Livello_1" data-name="Livello 1"><rect class="cls-1" width="330.83" height="330.83"/><path class="cls-2" d="M165,330.83H10.28s.5-24.79,32-41.54S101.53,258,101.53,258a29.86,29.86,0,0,0,17.25-23c2.5-17.25,3.75-29.5,3.75-29.5s-10.75-9.75-14.5-34.25c-3.09-.41-5.5-.25-7.5-7.25,0,0-5-17.61-5.53-21.08s-1.35-16.58,8.87-15c-1.55-11.57-1.74-37.78-1.35-47.81s-1-36.43,24.86-38.17c10-7.71,26.61-16.58,51.86-12.14s49.93,14.84,53.21,62.07c-2.7,2.31-3.47,3.09-5.79,3.66,0,3.28-2.12,32.39-2.12,32.39s10.41-.19,6.75,15.61-6.17,23.91-6.17,23.91a6.43,6.43,0,0,1-5.59,3.47c-2.31,17.35-7.33,25.83-11.57,33.73-1.26,7.54,3.47,32,3.47,32S213,250.72,231.29,260,279.68,285,286,288.5s30.26,15.83,34.5,42.33Z"/></g></g></svg>