<svg xmlns="http://www.w3.org/2000/svg" viewBox="0 0 427.45 37.32"><g id="Layer_2" data-name="Layer 2"><g id="Layer_1-2" data-name="Layer 1"><path d="M11.22,22.94H5V36.88H0V.33H11c8.46,0,10.1,6.77,10.1,10v2.56C21.11,16.22,19.47,22.94,11.22,22.94Zm4.92-12.51c0-4.46-3.33-5.18-5.23-5.18H5V18H11c1.9,0,5.13-.67,5.13-5.18Z"/><path d="M46.54,36.88V20.17H34.65V36.88h-5V.33h5V15.25H46.54V.33h5V36.88Z"/><path d="M80.39,36.88l-2.56-9.94h-11l-2.61,10H59.07L68.6.34h7.18l9.69,36.55H80.39Zm-8-31.38L68,22h8.56Z"/><path d="M109.77,36.87,102.8,22H98V36.87H93V.32h11c8.51,0,10.2,6.71,10.2,9.94V12c0,2.67-1.18,7.64-6.15,9.43l7.33,15.48h-5.64Zm-.51-26.45c0-4.46-3.43-5.18-5.33-5.18H98V17h6c1.9,0,5.23-.67,5.23-5.13Z"/><path d="M124.34,36.87V.32h5.74l7.38,17.79L144.74.32h5.84V36.87h-5V11.19L139.46,26h-4l-6.15-14.87V36.87Z"/><path d="M179.45,36.87l-2.56-9.94h-11l-2.61,9.94h-5.13L167.66.32h7.18l9.69,36.55Zm-8-31.37L167,22h8.56Z"/><path d="M191.56,36.87V32.62L206,5.24H192.27V.32H211.7V4.47L197.35,32h15.12v4.87Z"/><path d="M225.25.31V36.86h-5V.31Z"/><path d="M235.66,36.86V.31H256V5.23H240.63v10h14.2V20.1h-14.2V31.94H256v4.92Z"/><path d="M274.78,37.32c-8.25,0-10.51-6.82-10.51-10.15V9.89c0-3.23,2.1-9.89,10.61-9.89,8.15,0,10.56,6.35,10.56,9.94h-5c0-4.36-3.79-5.08-5.54-5.08s-5.64.72-5.64,5.13V27.16c0,4.46,3.79,5.28,5.64,5.28s5.59-.82,5.59-5.28V21.11h-6.31V16.19h11.28v11a10.15,10.15,0,0,1-10.66,10.11Z"/><path d="M313.8,36.86l-2.56-9.94h-11l-2.61,9.95h-5.13L302,.32h7.18l9.69,36.55H313.8ZM305.75,5.49,301.39,22H310Z"/><path d="M335.8,37.32c-6.61,0-10.87-4.36-10.87-10.1h5c0,3.33,2.46,5.23,5.84,5.23,3.84,0,6.25-2.26,6.25-5.33,0-2.36-1.33-3.84-3.18-4.92-1.49-.87-3.85-2.1-8.31-4.36a9.33,9.33,0,0,1-5-8.35C325.53,4,329.78,0,335.83,0c6.31,0,10.66,4.15,10.66,9.89h-5c0-3.23-2.41-5-5.64-5-3,0-5.33,1.69-5.33,4.72a4.59,4.59,0,0,0,2.82,4.1c2.92,1.49,5.54,2.77,7.89,4.05A10.35,10.35,0,0,1,347,27.23c0,5.83-4.84,10.09-11.15,10.09Z"/><path d="M365.23,37.32c-6.61,0-10.87-4.36-10.87-10.1h5c0,3.33,2.46,5.23,5.84,5.23,3.84,0,6.25-2.26,6.25-5.33,0-2.36-1.33-3.84-3.18-4.92-1.49-.87-3.85-2.1-8.31-4.36a9.34,9.34,0,0,1-5-8.36C355,3.94,359.21,0,365.26,0c6.31,0,10.66,4.15,10.66,9.89h-5c0-3.23-2.41-5-5.64-5-3,0-5.33,1.69-5.33,4.72a4.59,4.59,0,0,0,2.82,4.1c2.92,1.49,5.54,2.77,7.89,4a10.35,10.35,0,0,1,5.74,9.48c0,5.84-4.84,10.09-11.15,10.1Z"/><path d="M385.28,36.85V.3h20.3V5.22H390.25v10h14.2v4.92h-14.2V31.93h15.33v4.92Z"/><path d="M420.45,14.55a6.93,6.93,0,0,1-7-7.11,7,7,0,1,1,14,0A7,7,0,0,1,420.45,14.55Zm0-13a5.55,5.55,0,0,0-5.7,5.89,5.7,5.7,0,1,0,11.4,0A5.53,5.53,0,0,0,420.45,1.55ZM422,11,420.78,8.3h-1.45V11H418V3.61h2.73a2.38,2.38,0,0,1,2.64,2.32,2.2,2.2,0,0,1-1.34,2.15L423.44,11Zm-1.26-6.22h-1.45V7.1h1.45c.78,0,1.28-.35,1.28-1.16A1.13,1.13,0,0,0,420.76,4.81Z"/></g></g></svg>