3<?xml version="1.0" encoding="utf-8"?>
<!-- Generator: Adobe Illustrator 26.3.1, SVG Export Plug-In . SVG Version: 6.00 Build 0)  -->
<svg version="1.1" id="Ebene_1"
	xmlns="http://www.w3.org/2000/svg"
	xmlns:xlink="http://www.w3.org/1999/xlink" x="0px" y="0px" viewBox="0 0 1000 1000" style="enable-background:new 0 0 1000 1000;" xml:space="preserve">
	<style type="text/css">
	.st0{fill:#FFFFFF;}
	</style>
	<g>
		<g>
			<g>
				<path class="st0" d="M70.8,922.1l-13.3,0v29.6H47l0-77.5l23.4,0c17.9,0,21.4,14.3,21.4,21.2v5.4
				C91.8,907.8,88.3,922.1,70.8,922.1z M81.2,895.5c0-9.5-7.1-11-11.1-11l-12.6,0v27.1l12.8,0c4,0,10.9-1.4,10.9-11V895.5z"/>
				<path class="st0" d="M145.7,951.6l0-35.4l-25.2,0l0,35.4h-10.5l0-77.5h10.5l0,31.6l25.2,0l0-31.6l10.5,0l0,77.5L145.7,951.6z"/>
				<path class="st0" d="M217.4,951.6l-5.4-21.1h-23.4l-5.5,21.1h-10.9l20.2-77.5h15.2l20.5,77.5H217.4z M200.4,885.1l-9.2,35h18.1
				L200.4,885.1z"/>
				<path class="st0" d="M279.7,951.6L264.9,920h-10.2v31.6h-10.5l0-77.5h23.4c18,0,21.6,14.2,21.6,21.1v3.6c0,5.7-2.5,16.2-13,20
				l15.5,32.8H279.7z M278.6,895.5c0-9.5-7.3-11-11.3-11h-12.6v25h12.8c4,0,11.1-1.4,11.1-10.9V895.5z"/>
				<path class="st0" d="M310.6,951.6l0-77.5h12.2l15.6,37.7l15.4-37.7l12.4,0l0,77.5l-10.5,0l0-54.4l-13,31.4h-8.5l-13-31.5l0,54.5
				H310.6z"/>
				<path class="st0" d="M427.4,951.6l-5.4-21.1l-23.4,0l-5.5,21.1l-10.9,0l20.2-77.5l15.2,0l20.5,77.5H427.4z M410.3,885.1l-9.2,35
				l18.1,0L410.3,885.1z"/>
				<path class="st0" d="M453,951.6v-9l30.5-58l-29,0l0-10.4l41.2,0l0,8.8l-30.4,58.3l32.1,0v10.3L453,951.6z"/>
				<path class="st0" d="M524.4,874.1l0,77.5h-10.5l0-77.5H524.4z"/>
				<path class="st0" d="M546.5,951.6l0-77.5l43,0l0,10.4l-32.5,0v21.1l30.1,0V916l-30.1,0l0,25.1l32.5,0v10.4L546.5,951.6z"/>
				<path class="st0" d="M629.4,952.5c-17.5,0-22.3-14.4-22.3-21.5l0-36.6c0-6.8,4.5-21,22.5-21c17.3,0,22.4,13.5,22.4,21.1l-10.6,0
				c0-9.2-8-10.8-11.7-10.8c-3.9,0-12,1.5-12,10.9l0,36.4c0,9.5,8,11.2,12,11.2c3.7,0,11.8-1.7,11.8-11.2l0-12.8h-13.4v-10.4l23.9,0
				l0,23.4C652,938.2,647,952.5,629.4,952.5z"/>
				<path class="st0" d="M712.1,951.6l-5.4-21.1h-23.4l-5.5,21.1h-10.9l20.2-77.5h15.2l20.5,77.5H712.1z M695.1,885.1l-9.2,35H704
				L695.1,885.1z"/>
				<path class="st0" d="M758.8,952.5c-14,0-23-9.2-23-21.4l10.5,0c0,7.1,5.2,11.1,12.4,11.1c8.1,0,13.3-4.8,13.3-11.3
				c0-5-2.8-8.1-6.7-10.4c-3.2-1.8-8.2-4.5-17.6-9.2c-6.2-3.2-10.5-9.9-10.5-17.7c0-11.7,9-20.1,21.8-20.1c13.4,0,22.6,8.8,22.6,21
				h-10.6c0-6.8-5.1-10.6-12-10.6c-6.3,0-11.3,3.6-11.3,10c0,3.7,2.2,6.7,6,8.7c6.2,3.2,11.7,5.9,16.7,8.6
				c7.9,4.3,12.2,11.3,12.2,20.1C782.4,943.5,772.1,952.5,758.8,952.5z"/>
				<path class="st0" d="M821.1,952.5c-14,0-23-9.2-23-21.4h10.5c0,7.1,5.2,11.1,12.4,11.1c8.1,0,13.3-4.8,13.3-11.3
				c0-5-2.8-8.1-6.7-10.4c-3.2-1.8-8.2-4.5-17.6-9.2c-6.2-3.2-10.5-9.9-10.5-17.7c0-11.7,9-20.1,21.8-20.1c13.4,0,22.6,8.8,22.6,21
				h-10.6c0-6.8-5.1-10.6-12-10.6c-6.3,0-11.3,3.6-11.3,10c0,3.7,2.2,6.7,6,8.7c6.2,3.2,11.7,5.9,16.7,8.6
				c7.9,4.3,12.2,11.3,12.2,20.1C844.8,943.5,834.5,952.5,821.1,952.5z"/>
				<path class="st0" d="M863.6,951.5l0-77.5l43,0l0,10.4l-32.5,0v21.1l30.1,0V916l-30.1,0l0,25.1l32.5,0v10.4L863.6,951.5z"/>
			</g>
			<g>
				<path class="st0" d="M938.2,904.3c-8.5,0-14.8-6.7-14.8-15.1s6.3-15.1,14.8-15.1c8.5,0,14.8,6.7,14.8,15.1
				C953,897.6,946.7,904.3,938.2,904.3z M938.2,876.7c-7.3,0-12.1,5.3-12.1,12.5c0,7.2,4.8,12.4,12.1,12.4c7.3,0,12.1-5.3,12.1-12.5
				C950.2,882,945.4,876.7,938.2,876.7z M941.5,896.8l-2.6-5.8h-3.1v5.8H933v-15.7h5.8c3,0,5.6,1.7,5.6,4.9c0,2.1-0.9,3.7-2.8,4.6
				l2.9,6.2L941.5,896.8z M938.8,883.6h-3.1v4.8h3.1c1.6,0,2.7-0.7,2.7-2.5C941.5,884.4,940.3,883.6,938.8,883.6z"/>
			</g>
		</g>
		<g>
			<path class="st0" d="M550.4,47.7c8.9-3.3,15.9-1.1,21.1,6.8c5.2,7.9,5.7,15.8,1.4,23.6c-46.3,100.6-79.2,194.5-98.8,281.8
			c-19.9,88.8-31.4,187.3-34.5,295.4c0.3,6.7-3,11.4-9.9,14.1c-6.9,2.7-13.9,2.6-20.9-0.2c-7.1-2.9-10.3-7.5-9.7-13.9
			c3.4-101.2,12.4-189.1,27.1-263.6c15.3-77.3,40.5-159.1,75.4-245.4c-41.7,42.1-81.2,93.9-118.6,155.4
			c-36.5,60-65.7,119.5-87.8,178.6c-1.8,7.6-8.3,11.4-19.3,11.4c-10.4-0.3-16.9-3.5-19.3-9.5c-0.6-1.8-0.6-3.9,0-6.4l43.7-197.2
			c0.3-0.9,1.4-5.1,3.2-12.7c1.8-7.6,3.4-13.6,4.6-18.2c3.7-12.1,6.3-24.8,7.8-38.2c0.6-5.5,1-9.6,1.1-12.5c0.2-2.9,0.2-6,0.2-9.3
			c0-3.3-0.5-5.5-1.6-6.6c-1.1-1.1-2.5-1.4-4.4-1.1c-20.5,3.6-48.4,32.4-83.7,86.4c-57,87.9-104.3,203.9-142,348.1
			c-1.2,6.4-5.5,10.1-12.9,11.1c-7.4,1.1-13.9-0.5-19.8-4.8c-5.8-4.2-7.5-9.4-5.1-15.5c6.7-27.3,24.8-103.9,54.2-230
			c22.4-97.9,40.6-176.3,54.7-235.4c1.2-7,5.4-11.1,12.6-12.3c7.2-1.2,13.7,0.4,19.5,4.8c5.8,4.4,7.7,9.6,5.5,15.7
			c-3.4,15.8-12,47.4-25.7,95c-13.8,48.2-22.4,79.8-25.7,95l10.1-16.8c0.9-1.2,9.8-15.9,26.7-44.1c19.6-32.4,32.8-53.8,39.5-64.1
			c11-17.3,25.1-35.3,42.3-54.1c16.8-18.5,31.9-30.1,45-35c16.2-5.5,28.7-3.9,37.5,4.5c8.7,8.5,13.4,23,14,43.6
			c0.6,30.9-4.3,74.1-14.7,129.5c33.7-55.4,72-110.3,114.9-164.5C501.3,83.3,532,53.4,550.4,47.7z"/>
			<path class="st0" d="M558.6,833.1c-5.8,1.8-13.3,1.5-22.5-0.9c-8.9-2.7-14.2-6.7-16.1-12.1c-13.2-27.8-8.7-60.7,13.3-98.7
			c4.9-8.7,12.7-19.1,23.4-31.4c5.2-6.3,13.3-15.1,24.4-26.5c5.2-6,13.8-14.4,25.7-25.1c4.3-4.2,7-7,8.3-8.5
			c4.9-4.8,9-8.4,12.4-10.8l4.6-13.9c10.7-33.8,20.1-66.5,28-98.2c-27.3,25.1-52.4,34.8-75.4,29.2c-12.3-2.7-21.4-9-27.4-19.1
			c-6-10-8.7-21.6-8-34.8c1.2-24.5,7-47.3,17.5-68.2c4.6-6,10-8.7,16.3-8.3c6.3,0.4,11.6,3.7,15.9,9.9c4.3,6.1,4.9,12.3,1.8,18.6
			c-6.1,18.8-7.8,32.9-5.1,42.2c2.8,9.3,8.7,13.6,17.9,13c9.2-0.6,18.4-6.1,27.6-16.6c12.9-10.8,25.1-24.8,36.8-42.2
			c5.5-8.1,12.9-10.3,22.1-6.7c9.2,3.9,12.9,10.6,11,20.2c-15,70.6-26,117.2-33.1,140c31.3-24.5,68.3-42,111.2-52.5
			c43.2-10.5,86.1-11.1,128.7-1.8c19.3,3.9,30.3,12.7,33.1,26.5c1.2,9.6-2.1,15.1-10.1,16.6c-0.3,0-2-0.3-5.1-0.9
			c-34.9-11.7-76.6-14.7-125-9c-48.7,5.7-87.6,20.3-116.8,44l-35.9,29.2c-9.5,25.7-16.4,43.5-20.7,53.4c-3.1,7.8-8.3,25-15.6,51.6
			c-8.3,28.1-17,49.2-26.2,63.3C586.7,818.1,574.3,827.7,558.6,833.1z M550.4,785.1c2.1,19.7,11.2,11.1,27.1-26
			c1.8-4.2,3.7-8.7,5.5-13.5c8.6-21.8,16.1-42.3,22.5-61.5C569.1,722.7,550.7,756.4,550.4,785.1z"/>
		</g>
	</g>
</svg>
