<?xml version="1.0" encoding="utf-8"?>
<!-- Generator: Adobe Illustrator 26.3.1, SVG Export Plug-In . SVG Version: 6.00 Build 0)  -->
<svg version="1.1" id="Ebene_1"
	xmlns="http://www.w3.org/2000/svg"
	xmlns:xlink="http://www.w3.org/1999/xlink" x="0px" y="0px" viewBox="0 0 1000 1000" style="enable-background:new 0 0 1000 1000;" xml:space="preserve">
	<style type="text/css">
	.st1{fill:#1E1E1C;}
	</style>
	<g>
		<g>
			<g>
				<path class="st1" d="M70.8,922.1l-13.3,0v29.6H47l0-77.5l23.4,0c18,0,21.4,14.3,21.4,21.2v5.4C91.8,907.8,88.4,922.1,70.8,922.1z
				 M81.3,895.5c0-9.5-7.1-11-11.1-11l-12.6,0v27.1l12.8,0c4,0,10.9-1.4,10.9-11V895.5z"/>
				<path class="st1" d="M145.8,951.6l0-35.4l-25.2,0l0,35.4H110l0-77.5h10.6l0,31.6l25.2,0l0-31.6l10.6,0l0,77.5L145.8,951.6z"/>
				<path class="st1" d="M217.7,951.6l-5.4-21.1h-23.4l-5.5,21.1h-10.9l20.2-77.5h15.2l20.6,77.5H217.7z M200.6,885.1l-9.2,35h18.2
				L200.6,885.1z"/>
				<path class="st1" d="M280,951.6L265.2,920H255v31.6h-10.6l0-77.5h23.4c18.1,0,21.7,14.2,21.7,21.1v3.6c0,5.7-2.5,16.2-13.1,20
				l15.6,32.8H280z M278.9,895.5c0-9.5-7.3-11-11.3-11H255v25h12.8c4,0,11.1-1.4,11.1-10.9V895.5z"/>
				<path class="st1" d="M310.9,951.6l0-77.5h12.2l15.7,37.7l15.4-37.7l12.4,0l0,77.5l-10.6,0l0-54.4L343,928.6h-8.5L321.5,897
				l0,54.5H310.9z"/>
				<path class="st1" d="M427.9,951.6l-5.4-21.1l-23.4,0l-5.5,21.1l-10.9,0l20.2-77.5l15.2,0l20.6,77.5H427.9z M410.8,885.1l-9.2,35
				l18.2,0L410.8,885.1z"/>
				<path class="st1" d="M453.6,951.6v-9l30.6-58l-29,0l0-10.4l41.2,0l0,8.8l-30.5,58.3l32.1,0v10.3L453.6,951.6z"/>
				<path class="st1" d="M525.1,874.1l0,77.5h-10.6l0-77.5H525.1z"/>
				<path class="st1" d="M547.2,951.6l0-77.5l43.1,0l0,10.4l-32.5,0v21.1l30.1,0V916l-30.1,0l0,25.1l32.5,0v10.4L547.2,951.6z"/>
				<path class="st1" d="M630.2,952.5c-17.5,0-22.3-14.4-22.3-21.5l0-36.6c0-6.8,4.5-21,22.5-21c17.3,0,22.4,13.5,22.4,21.1l-10.7,0
				c0-9.2-8.1-10.8-11.7-10.8c-3.9,0-12,1.5-12,10.9l0,36.4c0,9.5,8.1,11.2,12,11.2c3.7,0,11.9-1.7,11.9-11.2l0-12.8h-13.4v-10.4
				l23.9,0l0,23.4C652.9,938.2,647.8,952.5,630.2,952.5z"/>
				<path class="st1" d="M713,951.6l-5.4-21.1h-23.4l-5.5,21.1h-10.9l20.2-77.5h15.2l20.6,77.5H713z M696,885.1l-9.2,35h18.2
				L696,885.1z"/>
				<path class="st1" d="M759.7,952.5c-14,0-23.1-9.2-23.1-21.4l10.6,0c0,7.1,5.2,11.1,12.4,11.1c8.2,0,13.3-4.8,13.3-11.3
				c0-5-2.8-8.1-6.7-10.4c-3.2-1.8-8.2-4.5-17.6-9.2c-6.2-3.2-10.6-9.9-10.6-17.7c0-11.7,9-20.1,21.9-20.1c13.4,0,22.6,8.8,22.6,21
				h-10.7c0-6.8-5.1-10.6-12-10.6c-6.3,0-11.3,3.6-11.3,10c0,3.7,2.2,6.7,6,8.7c6.2,3.2,11.7,5.9,16.8,8.6
				c7.9,4.3,12.2,11.3,12.2,20.1C783.4,943.5,773.1,952.5,759.7,952.5z"/>
				<path class="st1" d="M822.2,952.5c-14,0-23.1-9.2-23.1-21.4h10.6c0,7.1,5.2,11.1,12.4,11.1c8.2,0,13.3-4.8,13.3-11.3
				c0-5-2.8-8.1-6.7-10.4c-3.2-1.8-8.2-4.5-17.6-9.2c-6.2-3.2-10.6-9.9-10.6-17.7c0-11.7,9-20.1,21.9-20.1c13.4,0,22.6,8.8,22.6,21
				h-10.7c0-6.8-5.1-10.6-12-10.6c-6.3,0-11.3,3.6-11.3,10c0,3.7,2.2,6.7,6,8.7c6.2,3.2,11.7,5.9,16.8,8.6
				c7.9,4.3,12.2,11.3,12.2,20.1C845.9,943.5,835.6,952.5,822.2,952.5z"/>
				<path class="st1" d="M864.8,951.5l0-77.5l43.1,0l0,10.4l-32.5,0v21.1l30.1,0V916l-30.1,0l0,25.1l32.5,0v10.4L864.8,951.5z"/>
			</g>
			<g>
				<path class="st1" d="M939.4,904.3c-8.5,0-14.8-6.7-14.8-15.1s6.3-15.1,14.8-15.1c8.5,0,14.8,6.7,14.8,15.1
				C954.2,897.6,947.9,904.3,939.4,904.3z M939.4,876.7c-7.3,0-12.1,5.3-12.1,12.5c0,7.2,4.8,12.4,12.1,12.4
				c7.3,0,12.1-5.3,12.1-12.5C951.5,882,946.7,876.7,939.4,876.7z M942.7,896.8l-2.6-5.8H937v5.8h-2.8v-15.7h5.8
				c3,0,5.6,1.7,5.6,4.9c0,2.1-0.9,3.7-2.8,4.6l2.9,6.2L942.7,896.8z M940,883.6H937v4.8h3.1c1.6,0,2.7-0.7,2.7-2.5
				C942.8,884.4,941.5,883.6,940,883.6z"/>
			</g>
		</g>
		<g>
			<path class="st1" d="M551.1,47.7c8.9-3.3,16-1.1,21.2,6.8c5.2,7.9,5.7,15.8,1.4,23.6c-46.3,100.6-79.3,194.5-99,281.8
			c-20,88.8-31.5,187.3-34.5,295.4c0.3,6.7-3,11.4-9.9,14.1c-6.9,2.7-13.9,2.6-20.9-0.2c-7.1-2.9-10.3-7.5-9.7-13.9
			c3.4-101.2,12.4-189.1,27.2-263.6c15.3-77.3,40.5-159.1,75.5-245.4c-41.7,42.1-81.3,93.9-118.8,155.4
			c-36.5,60-65.8,119.5-87.9,178.6c-1.8,7.6-8.3,11.4-19.3,11.4c-10.4-0.3-16.9-3.5-19.3-9.5c-0.6-1.8-0.6-3.9,0-6.4l43.7-197.2
			c0.3-0.9,1.4-5.1,3.2-12.7c1.8-7.6,3.4-13.6,4.6-18.2c3.7-12.1,6.3-24.8,7.8-38.2c0.6-5.5,1-9.6,1.2-12.5c0.2-2.9,0.2-6,0.2-9.3
			c0-3.3-0.5-5.5-1.6-6.6c-1.1-1.1-2.5-1.4-4.4-1.1c-20.6,3.6-48.5,32.4-83.8,86.4c-57.1,87.9-104.5,203.9-142.2,348.1
			c-1.2,6.4-5.5,10.1-12.9,11.1c-7.4,1.1-14-0.5-19.8-4.8c-5.8-4.2-7.5-9.4-5.1-15.5c6.7-27.3,24.9-103.9,54.3-230
			c22.4-97.9,40.7-176.3,54.8-235.4c1.2-7,5.4-11.1,12.7-12.3c7.2-1.2,13.7,0.4,19.6,4.8c5.8,4.4,7.7,9.6,5.5,15.7
			c-3.4,15.8-12,47.4-25.8,95c-13.8,48.2-22.4,79.8-25.8,95l10.1-16.8c0.9-1.2,9.8-15.9,26.7-44.1c19.6-32.4,32.8-53.8,39.6-64.1
			c11-17.3,25.2-35.3,42.3-54.1c16.9-18.5,31.9-30.1,45.1-35c16.3-5.5,28.8-3.9,37.5,4.5c8.7,8.5,13.4,23,14,43.6
			c0.6,30.9-4.3,74.1-14.7,129.5C377.7,246.3,416,191.4,459,137.2C502,83.3,532.6,53.4,551.1,47.7z"/>
			<path class="st1" d="M559.3,833.1c-5.8,1.8-13.3,1.5-22.6-0.9c-8.9-2.7-14.3-6.7-16.1-12.1c-13.2-27.8-8.7-60.7,13.3-98.7
			c4.9-8.7,12.7-19.1,23.5-31.4c5.2-6.3,13.3-15.1,24.4-26.5c5.2-6,13.8-14.4,25.8-25.1c4.3-4.2,7.1-7,8.3-8.5
			c4.9-4.8,9-8.4,12.4-10.8l4.6-13.9c10.7-33.8,20.1-66.5,28.1-98.2c-27.3,25.1-52.5,34.8-75.5,29.2c-12.3-2.7-21.4-9-27.4-19.1
			c-6-10-8.7-21.6-8.1-34.8c1.2-24.5,7.1-47.3,17.5-68.2c4.6-6,10-8.7,16.3-8.3c6.3,0.4,11.6,3.7,15.9,9.9
			c4.3,6.1,4.9,12.3,1.8,18.6c-6.1,18.8-7.8,32.9-5.1,42.2c2.8,9.3,8.7,13.6,18,13c9.2-0.6,18.4-6.1,27.6-16.6
			c12.9-10.8,25.2-24.8,36.8-42.2c5.5-8.1,12.9-10.3,22.1-6.7c9.2,3.9,12.9,10.6,11,20.2c-15,70.6-26.1,117.2-33.1,140
			c31.3-24.5,68.4-42,111.4-52.5c43.3-10.5,86.2-11.1,128.9-1.8c19.3,3.9,30.4,12.7,33.1,26.5c1.2,9.6-2.2,15.1-10.1,16.6
			c-0.3,0-2-0.3-5.1-0.9c-35-11.7-76.7-14.7-125.2-9c-48.8,5.7-87.8,20.3-116.9,44l-35.9,29.2c-9.5,25.7-16.4,43.5-20.7,53.4
			c-3.1,7.8-8.3,25-15.6,51.6c-8.3,28.1-17,49.2-26.2,63.3C587.4,818.1,575,827.7,559.3,833.1z M551.1,785.1
			c2.1,19.7,11.2,11.1,27.2-26c1.8-4.2,3.7-8.7,5.5-13.5c8.6-21.8,16.1-42.3,22.6-61.5C569.8,722.7,551.4,756.4,551.1,785.1z"/>
		</g>
	</g>
</svg>
